<svg width="240" height="240" viewBox="0 0 240 240" fill="none" xmlns="http://www.w3.org/2000/svg">
  <rect width="240" height="240" rx="56" fill="#F2F8FD"/>
  <circle cx="120" cy="82" r="34" fill="#5AACE6"/>
  <path d="M62 196c9-39 32-62 58-62s49 23 58 62" fill="#5AACE6" opacity=".45"/>
  <path d="M120 53c-31 0-52 21-52 48 0 18 9 34 24 43 9 5 19 7 28 7s19-2 28-7c15-9 24-25 24-43 0-27-21-48-52-48z" fill="#1A2B3C" opacity=".12"/>
  <path d="M120 50v92" stroke="#1A2B3C" stroke-width="12" stroke-linecap="round"/>
  <path d="M93 110c0 15 12 27 27 27s27-12 27-27" stroke="#1A2B3C" stroke-width="12" stroke-linecap="round"/>
  <path d="M100 170h40M120 150v42" stroke="#1A2B3C" stroke-width="12" stroke-linecap="round"/>
</svg>
